<svg xmlns="http://www.w3.org/2000/svg" viewBox="0 0 1024 1024" role="img" aria-labelledby="title desc">
  <title id="title">Skillstep logo</title>
  <desc id="desc">A stepped S mark with six small technique ticks and a teal progress path.</desc>
  <rect width="1024" height="1024" rx="224" fill="#F7F3EA"/>
  <path d="M712 294 H414 C334 294 280 340 280 410 C280 488 344 520 448 520 H578 C668 520 728 568 728 642 C728 716 668 760 566 760 H304" fill="none" stroke="#DACDB8" stroke-width="132" stroke-linecap="round" stroke-linejoin="round" opacity=".9"/>
  <path d="M712 294 H414 C334 294 280 340 280 410 C280 488 344 520 448 520" fill="none" stroke="#1F2933" stroke-width="112" stroke-linecap="round" stroke-linejoin="round"/>
  <path d="M448 520 H578 C668 520 728 568 728 642" fill="none" stroke="#256C63" stroke-width="112" stroke-linecap="round" stroke-linejoin="round"/>
  <path d="M728 642 C728 716 668 760 566 760 H304" fill="none" stroke="#1F2933" stroke-width="112" stroke-linecap="round" stroke-linejoin="round"/>
  <path d="M294 706 L358 760 L294 814 Z" fill="#B85E3A"/>
  <g fill="#FFFDF8" stroke="#DACDB8" stroke-width="10">
    <circle cx="642" cy="294" r="21"/>
    <circle cx="428" cy="294" r="21"/>
    <circle cx="318" cy="418" r="21"/>
    <circle cx="512" cy="520" r="21"/>
    <circle cx="710" cy="644" r="21"/>
    <circle cx="468" cy="760" r="21"/>
  </g>
</svg>
